<?xml version="1.0" standalone="no"?>
<!DOCTYPE svg PUBLIC "-//W3C//DTD SVG 20010904//EN"
 "http://www.w3.org/TR/2001/REC-SVG-20010904/DTD/svg10.dtd">
<svg version="1.0" xmlns="http://www.w3.org/2000/svg"
 width="260.000000pt" height="260.000000pt" viewBox="0 0 260.000000 260.000000"
 preserveAspectRatio="xMidYMid meet">
<metadata>
Created by potrace 1.14, written by Peter Selinger 2001-2017
</metadata>
<g transform="translate(0.000000,260.000000) scale(0.100000,-0.100000)"
fill="#000000" stroke="none">
<path d="M737 1950 c-302 -197 -551 -360 -553 -363 -2 -2 95 -66 215 -143 121
-76 220 -142 221 -145 0 -3 -96 -68 -212 -144 -117 -76 -217 -141 -221 -145
-7 -6 1101 -720 1117 -720 4 0 257 161 562 357 l555 357 -78 50 c-43 28 -143
93 -221 144 -79 50 -141 96 -138 100 2 4 102 70 221 147 118 76 212 141 208
145 -21 18 -1113 720 -1120 720 -4 -1 -255 -162 -556 -360z m861 -165 c166
-99 302 -183 302 -186 0 -6 -592 -379 -602 -379 -4 0 -144 83 -312 184 l-307
183 303 191 c167 105 306 190 309 189 3 -1 142 -83 307 -182z m-503 -785 c112
-71 207 -130 210 -130 3 0 92 55 197 123 106 68 199 127 205 131 12 7 192 -91
193 -105 0 -7 -592 -379 -602 -379 -4 0 -144 83 -313 184 l-306 184 97 61 c54
33 102 61 106 61 5 0 101 -58 213 -130z"/>
</g>
</svg>
