<?xml version="1.0" encoding="utf-8"?>
<!-- Generator: Adobe Illustrator 26.1.0, SVG Export Plug-In . SVG Version: 6.00 Build 0)  -->
<svg version="1.1" id="Metro_Palma_de_Mallorca" xmlns="http://www.w3.org/2000/svg" xmlns:xlink="http://www.w3.org/1999/xlink"
	 x="0px" y="0px" viewBox="0 0 778.5 183.2" style="enable-background:new 0 0 778.5 183.2;" xml:space="preserve">
<style type="text/css">
	.st0{fill-rule:evenodd;clip-rule:evenodd;fill:#ED1E25;}
</style>
<g>
	<path class="st0" d="M199.9,65.3L99,0L-0.9,65.3L39.3,91l-40.2,26.3l100.8,64.3l99.9-64.3l-40.2-26L199.9,65.3z M98.4,30.8
		l55.5,33.3L99.3,98.4L43.8,65.1L98.4,30.8z M153.9,116.1l-54.6,34.2L43.8,117l18.3-11.5l37.8,24.1l37-23.8L153.9,116.1z"/>
</g>
<g>
	<g>
		<path d="M275.2,21c4,0,7.7,0.6,10.9,1.9c3.2,1.3,6,3.1,8.3,5.4c2.3,2.3,4.1,4.9,5.3,7.9c1.2,3,1.8,6.2,1.8,9.6
			c0,5.3-1.1,9.9-3.3,13.7c-2.2,3.9-5.8,6.8-10.9,8.8v0.3c2.4,0.6,4.5,1.7,6.1,3.1s2.9,3,3.9,4.9c1,1.9,1.7,4,2.2,6.2
			c0.5,2.3,0.8,4.5,1,6.8c0.1,1.4,0.2,3.1,0.3,5c0.1,1.9,0.2,3.9,0.4,5.9c0.2,2,0.6,3.9,1,5.7c0.5,1.8,1.2,3.3,2.1,4.6h-19.7
			c-1.1-2.9-1.8-6.2-2-10.2c-0.3-3.9-0.6-7.7-1.1-11.3c-0.7-4.7-2.1-8.1-4.3-10.3c-2.2-2.2-5.8-3.3-10.7-3.3h-19.7v35.1h-19.7V21
			H275.2z M268.1,61.7c4.5,0,7.9-1,10.2-3c2.3-2,3.4-5.3,3.4-9.8c0-4.4-1.1-7.5-3.4-9.5c-2.3-2-5.7-2.9-10.2-2.9h-21.6v25.3
			L268.1,61.7L268.1,61.7z"/>
		<path d="M334.8,95.3c2.7,2.6,6.5,3.9,11.6,3.9c3.6,0,6.7-0.9,9.3-2.7c2.6-1.8,4.2-3.7,4.8-5.7h15.7c-2.5,7.8-6.4,13.4-11.6,16.8
			c-5.2,3.4-11.5,5-18.9,5c-5.1,0-9.7-0.8-13.9-2.5s-7.6-4-10.4-7c-2.9-3-5.1-6.6-6.6-10.8c-1.6-4.2-2.3-8.8-2.3-13.9
			c0-4.9,0.8-9.4,2.4-13.6c1.6-4.2,3.9-7.8,6.8-10.9c2.9-3.1,6.4-5.5,10.5-7.2c4.1-1.8,8.6-2.6,13.5-2.6c5.5,0,10.3,1.1,14.5,3.2
			c4.1,2.1,7.5,5,10.1,8.6c2.6,3.6,4.5,7.7,5.7,12.3c1.2,4.6,1.6,9.4,1.3,14.5h-46.9C330.7,88.5,332.1,92.7,334.8,95.3z M355,61.1
			c-2.1-2.3-5.4-3.5-9.7-3.5c-2.9,0-5.2,0.5-7.1,1.4c-1.9,1-3.4,2.2-4.5,3.6c-1.1,1.4-1.9,2.9-2.4,4.5c-0.5,1.6-0.7,3-0.8,4.3h29.1
			C358.7,66.8,357.2,63.4,355,61.1z"/>
		<path d="M434.1,102.6c-2.1,3.5-4.8,6.1-8.2,7.6c-3.4,1.6-7.2,2.3-11.5,2.3c-4.8,0-9.1-1-12.8-2.8c-3.7-1.9-6.8-4.5-9.1-7.7
			c-2.4-3.2-4.2-6.9-5.4-11.1s-1.8-8.6-1.8-13.1c0-4.4,0.6-8.6,1.8-12.6s3-7.7,5.4-10.7c2.4-3.1,5.4-5.6,9-7.5s7.8-2.8,12.6-2.8
			c3.9,0,7.5,0.8,11,2.5c3.5,1.6,6.2,4.1,8.2,7.2h0.3V21.2h17.9V111h-17v-8.3h-0.3V102.6z M433.3,70.4c-0.5-2.5-1.4-4.7-2.6-6.5
			c-1.2-1.9-2.8-3.4-4.7-4.6c-1.9-1.2-4.4-1.8-7.3-1.8c-2.9,0-5.4,0.6-7.4,1.8c-2,1.2-3.6,2.7-4.8,4.7c-1.2,1.9-2.1,4.2-2.6,6.6
			c-0.6,2.5-0.8,5.1-0.8,7.7c0,2.5,0.3,5,0.9,7.5c0.6,2.5,1.5,4.8,2.8,6.7c1.3,2,2.9,3.5,4.9,4.8c2,1.2,4.3,1.8,7.1,1.8
			c2.9,0,5.4-0.6,7.4-1.8c2-1.2,3.5-2.7,4.7-4.7c1.2-2,2-4.2,2.5-6.7s0.7-5.1,0.7-7.8S433.9,72.9,433.3,70.4z"/>
		<path d="M481.8,45.8v12.1h0.3c0.8-2,2-3.9,3.4-5.6c1.4-1.7,3.1-3.2,4.9-4.4c1.9-1.2,3.8-2.2,5.9-2.8c2.1-0.6,4.3-1,6.5-1
			c1.2,0,2.5,0.2,3.9,0.6v16.6c-0.8-0.2-1.9-0.3-3-0.4c-1.2-0.1-2.3-0.2-3.4-0.2c-3.3,0-6.1,0.6-8.3,1.6s-4.1,2.6-5.5,4.5
			c-1.4,1.9-2.4,4.1-2.9,6.6c-0.6,2.5-0.9,5.2-0.9,8.2V111h-17.9V45.9L481.8,45.8L481.8,45.8z"/>
		<path d="M530.6,95.3c2.7,2.6,6.5,3.9,11.6,3.9c3.6,0,6.7-0.9,9.3-2.7c2.6-1.8,4.2-3.7,4.8-5.7H572c-2.5,7.8-6.4,13.4-11.6,16.8
			c-5.2,3.4-11.5,5-18.9,5c-5.1,0-9.7-0.8-13.9-2.5s-7.6-4-10.4-7c-2.9-3-5.1-6.6-6.6-10.8c-1.6-4.2-2.3-8.8-2.3-13.9
			c0-4.9,0.8-9.4,2.4-13.6c1.6-4.2,3.9-7.8,6.8-10.9c2.9-3.1,6.4-5.5,10.5-7.2c4.1-1.8,8.6-2.6,13.5-2.6c5.5,0,10.3,1.1,14.5,3.2
			s7.5,5,10.1,8.6c2.6,3.6,4.5,7.7,5.7,12.3c1.2,4.6,1.6,9.4,1.3,14.5h-46.9C526.5,88.5,528,92.7,530.6,95.3z M550.8,61.1
			c-2.1-2.3-5.4-3.5-9.7-3.5c-2.9,0-5.2,0.5-7.1,1.4c-1.9,1-3.4,2.2-4.5,3.6s-1.9,2.9-2.4,4.5c-0.5,1.6-0.7,3-0.8,4.3h29.1
			C554.4,66.8,553,63.4,550.8,61.1z"/>
		<path d="M619.5,45.8v11.9h-13.1V90c0,3,0.5,5,1.5,6.1c1,1,3,1.5,6.1,1.5c1,0,2,0,2.9-0.1c0.9-0.1,1.8-0.2,2.6-0.4v13.9
			c-1.5,0.3-3.2,0.4-5,0.5c-1.9,0.1-3.6,0.1-5.4,0.1c-2.8,0-5.4-0.2-7.9-0.6c-2.5-0.4-4.7-1.1-6.5-2.2c-1.9-1.1-3.4-2.6-4.5-4.7
			c-1.1-2-1.6-4.7-1.6-7.9V57.8h-10.8V45.8h10.8V26.3h17.9v19.5H619.5z"/>
		<path d="M645,45.8v12.1h0.3c0.8-2,2-3.9,3.4-5.6c1.4-1.7,3.1-3.2,4.9-4.4c1.9-1.2,3.8-2.2,5.9-2.8c2.1-0.6,4.3-1,6.5-1
			c1.2,0,2.5,0.2,3.9,0.6v16.6c-0.8-0.2-1.9-0.3-3-0.4c-1.2-0.1-2.3-0.2-3.4-0.2c-3.3,0-6.1,0.6-8.3,1.6s-4.1,2.6-5.5,4.5
			c-1.4,1.9-2.4,4.1-2.9,6.6c-0.6,2.5-0.9,5.2-0.9,8.2V111h-17.9V45.9L645,45.8L645,45.8z"/>
		<path d="M675.1,64.3c1.6-4.2,3.9-7.8,6.8-10.8c2.9-3,6.4-5.3,10.6-6.9c4.1-1.6,8.7-2.5,13.9-2.5c5.1,0,9.7,0.8,13.9,2.5
			c4.2,1.6,7.7,3.9,10.6,6.9c2.9,3,5.2,6.6,6.8,10.8c1.6,4.2,2.4,9,2.4,14.2s-0.8,9.9-2.4,14.1c-1.6,4.2-3.9,7.8-6.8,10.8
			c-2.9,3-6.5,5.3-10.6,6.8c-4.2,1.6-8.8,2.4-13.9,2.4c-5.1,0-9.7-0.8-13.9-2.4c-4.1-1.6-7.6-3.9-10.6-6.8c-2.9-3-5.2-6.6-6.8-10.8
			c-1.6-4.2-2.4-8.9-2.4-14.1C672.7,73.2,673.5,68.5,675.1,64.3z M691.3,86.1c0.5,2.5,1.4,4.7,2.6,6.7c1.2,2,2.8,3.5,4.8,4.7
			c2,1.2,4.5,1.8,7.5,1.8c3,0,5.5-0.6,7.6-1.8c2-1.2,3.7-2.7,4.9-4.7c1.2-2,2.1-4.2,2.6-6.7c0.5-2.5,0.7-5,0.7-7.6
			c0-2.6-0.3-5.2-0.7-7.7c-0.5-2.5-1.4-4.8-2.6-6.7c-1.2-1.9-2.9-3.5-4.9-4.7c-2.1-1.2-4.6-1.8-7.6-1.8s-5.5,0.6-7.5,1.8
			c-2,1.2-3.6,2.8-4.8,4.7c-1.2,1.9-2.1,4.2-2.6,6.7c-0.5,2.5-0.7,5.1-0.7,7.7C690.6,81,690.8,83.6,691.3,86.1z"/>
	</g>
	<g>
		<path d="M237.4,134.5c-1.2-0.9-2.8-1.3-4.7-1.3c-0.8,0-1.5,0.1-2.3,0.2c-0.7,0.2-1.4,0.4-2,0.8c-0.6,0.4-1,0.8-1.4,1.4
			c-0.3,0.6-0.5,1.3-0.5,2.2c0,0.8,0.3,1.5,0.8,2.1c0.5,0.5,1.2,1,2,1.3s1.8,0.6,2.8,0.8s2.1,0.4,3.2,0.7c1.1,0.3,2.2,0.6,3.2,0.9
			c1,0.3,2,0.8,2.8,1.4c0.8,0.6,1.5,1.3,2,2.2c0.5,0.9,0.8,2,0.8,3.4c0,1.5-0.3,2.7-1,3.7c-0.6,1-1.5,1.9-2.5,2.5
			c-1,0.7-2.2,1.1-3.4,1.4c-1.3,0.3-2.5,0.4-3.8,0.4c-1.5,0-3-0.2-4.4-0.6c-1.4-0.4-2.6-1-3.6-1.7c-1-0.8-1.9-1.8-2.5-3
			c-0.6-1.2-0.9-2.6-0.9-4.3h3.5c0,1.2,0.2,2.1,0.7,3c0.4,0.8,1,1.5,1.8,2.1c0.7,0.5,1.6,0.9,2.6,1.2c1,0.3,2,0.4,3,0.4
			c0.8,0,1.7-0.1,2.5-0.2c0.8-0.2,1.6-0.4,2.2-0.8c0.7-0.4,1.2-0.9,1.6-1.5c0.4-0.6,0.6-1.5,0.6-2.5c0-1-0.3-1.7-0.8-2.3
			c-0.5-0.6-1.2-1.1-2-1.4c-0.8-0.4-1.8-0.7-2.8-0.9c-1-0.2-2.1-0.5-3.2-0.7c-1.1-0.2-2.2-0.5-3.2-0.8c-1-0.3-2-0.7-2.8-1.3
			c-0.8-0.5-1.5-1.2-2-2c-0.5-0.8-0.8-1.9-0.8-3.1c0-1.4,0.3-2.6,0.8-3.6c0.6-1,1.3-1.9,2.2-2.5c0.9-0.7,2-1.1,3.2-1.5
			c1.2-0.3,2.4-0.5,3.7-0.5c1.4,0,2.7,0.2,3.9,0.5c1.2,0.3,2.3,0.9,3.2,1.6c0.9,0.7,1.6,1.6,2.2,2.7c0.5,1.1,0.8,2.4,0.9,3.9h-3.4
			C239.3,136.8,238.6,135.4,237.4,134.5z"/>
		<path d="M248.2,134.7v-4h3.3v4H248.2z M251.5,138.3v19.9h-3.3v-19.9H251.5z"/>
		<path d="M259.1,153.8c0.3,0.5,0.7,0.9,1.2,1.2c0.5,0.3,1.1,0.5,1.7,0.6c0.6,0.1,1.3,0.2,1.9,0.2c0.5,0,1.1,0,1.6-0.1
			c0.6-0.1,1.1-0.2,1.6-0.4s0.9-0.5,1.2-0.9c0.3-0.4,0.5-0.9,0.5-1.5c0-0.8-0.3-1.5-1-1.9c-0.6-0.4-1.4-0.8-2.4-1.1
			c-1-0.3-2-0.5-3.1-0.7c-1.1-0.2-2.2-0.5-3.1-0.9c-1-0.4-1.8-1-2.4-1.7c-0.6-0.7-1-1.7-1-3c0-1,0.2-1.9,0.7-2.6
			c0.4-0.7,1-1.3,1.7-1.7c0.7-0.4,1.5-0.8,2.4-1s1.8-0.3,2.6-0.3c1.1,0,2.2,0.1,3.1,0.3c1,0.2,1.8,0.5,2.5,1
			c0.7,0.5,1.3,1.1,1.7,1.9c0.4,0.8,0.7,1.8,0.8,3H268c-0.1-0.6-0.2-1.2-0.5-1.6c-0.3-0.4-0.6-0.8-1.1-1c-0.4-0.3-0.9-0.4-1.4-0.6
			c-0.5-0.1-1.1-0.2-1.6-0.2c-0.5,0-1,0-1.5,0.1c-0.5,0.1-1,0.2-1.4,0.4c-0.4,0.2-0.7,0.4-1,0.8c-0.3,0.3-0.4,0.7-0.4,1.2
			c0,0.6,0.2,1,0.6,1.4c0.4,0.4,0.9,0.7,1.5,0.9c0.6,0.2,1.3,0.4,2.1,0.6c0.8,0.2,1.5,0.3,2.3,0.5c0.8,0.2,1.6,0.4,2.4,0.6
			c0.8,0.3,1.5,0.6,2.1,1c0.6,0.4,1.1,1,1.5,1.6c0.4,0.6,0.6,1.4,0.6,2.4c0,1.2-0.3,2.2-0.8,3c-0.5,0.8-1.2,1.4-2,1.9
			c-0.8,0.5-1.7,0.8-2.7,1c-1,0.2-2,0.3-3,0.3c-1.1,0-2.2-0.1-3.1-0.3c-1-0.2-1.9-0.6-2.7-1.1c-0.8-0.5-1.4-1.2-1.9-2.1
			c-0.5-0.9-0.7-1.9-0.8-3.1h3.3C258.6,152.6,258.7,153.2,259.1,153.8z"/>
		<path d="M284.3,138.3v2.9h-4v12.3c0,0.4,0,0.7,0.1,0.9c0.1,0.2,0.2,0.4,0.4,0.5c0.2,0.1,0.4,0.2,0.8,0.3c0.3,0,0.7,0.1,1.2,0.1
			h1.5v2.9h-2.5c-0.8,0-1.6-0.1-2.2-0.2c-0.6-0.1-1.1-0.3-1.5-0.6s-0.6-0.7-0.8-1.3c-0.2-0.6-0.3-1.3-0.3-2.2v-12.6h-3.4v-2.9h3.4
			v-6h3.3v6H284.3z"/>
		<path d="M302,156.9c-1.5,1.1-3.4,1.7-5.6,1.7c-1.6,0-3-0.3-4.1-0.8c-1.2-0.5-2.1-1.2-2.9-2.2c-0.8-0.9-1.4-2-1.8-3.3
			s-0.6-2.7-0.7-4.2c0-1.5,0.2-2.9,0.7-4.2c0.5-1.3,1.1-2.3,1.9-3.3c0.8-0.9,1.8-1.6,3-2.2s2.4-0.8,3.7-0.8c1.8,0,3.2,0.4,4.4,1.1
			s2.1,1.7,2.8,2.8c0.7,1.1,1.2,2.4,1.5,3.7s0.4,2.6,0.3,3.8h-14.9c0,0.9,0.1,1.7,0.3,2.5c0.2,0.8,0.6,1.5,1.1,2.1
			c0.5,0.6,1.2,1.1,2,1.4c0.8,0.4,1.7,0.5,2.8,0.5c1.4,0,2.5-0.3,3.4-1c0.9-0.6,1.5-1.6,1.7-2.9h3.2
			C304.4,154.1,303.5,155.8,302,156.9z M301.2,144.1c-0.3-0.7-0.7-1.3-1.2-1.8s-1.1-0.9-1.8-1.2c-0.7-0.3-1.4-0.4-2.2-0.4
			c-0.8,0-1.6,0.1-2.3,0.4c-0.7,0.3-1.3,0.7-1.7,1.2s-0.9,1.1-1.2,1.8c-0.3,0.7-0.4,1.4-0.5,2.2h11.4
			C301.7,145.6,301.5,144.8,301.2,144.1z"/>
		<path d="M311.6,138.3v2.9h0.1c1.5-2.2,3.6-3.4,6.4-3.4c1.2,0,2.3,0.3,3.3,0.8s1.7,1.4,2.1,2.6c0.7-1.1,1.5-1.9,2.6-2.5
			c1.1-0.6,2.3-0.9,3.6-0.9c1,0,1.9,0.1,2.7,0.3c0.8,0.2,1.5,0.6,2.1,1s1,1.1,1.3,1.8s0.5,1.6,0.5,2.6v14.6h-3.3v-13
			c0-0.6-0.1-1.2-0.2-1.7s-0.3-1-0.6-1.4c-0.3-0.4-0.7-0.7-1.2-0.9c-0.5-0.2-1.2-0.3-1.9-0.3c-1.6,0-2.9,0.5-3.8,1.4
			c-0.9,0.9-1.4,2.2-1.4,3.7v12.4h-3.3v-13c0-0.6-0.1-1.2-0.2-1.8s-0.3-1-0.6-1.4c-0.3-0.4-0.7-0.7-1.1-0.9
			c-0.5-0.2-1.1-0.3-1.8-0.3c-1,0-1.8,0.2-2.4,0.6c-0.7,0.4-1.2,0.8-1.7,1.4s-0.7,1.1-0.9,1.7c-0.2,0.6-0.3,1.1-0.3,1.4v12.4h-3.3
			v-19.9L311.6,138.3L311.6,138.3z"/>
		<path d="M359,158.1c-0.6,0.3-1.3,0.5-2.3,0.5c-0.8,0-1.5-0.2-2-0.7c-0.5-0.5-0.8-1.3-0.8-2.3c-0.9,1.1-1.9,1.9-3.1,2.3
			c-1.2,0.5-2.5,0.7-3.9,0.7c-0.9,0-1.7-0.1-2.6-0.3c-0.8-0.2-1.5-0.5-2.1-1c-0.6-0.4-1.1-1-1.4-1.7c-0.3-0.7-0.5-1.6-0.5-2.6
			c0-1.1,0.2-2.1,0.6-2.8c0.4-0.7,0.9-1.3,1.5-1.7c0.6-0.4,1.3-0.8,2.2-1c0.8-0.2,1.6-0.4,2.5-0.6c0.9-0.2,1.7-0.3,2.6-0.4
			c0.8-0.1,1.5-0.2,2.1-0.4c0.6-0.2,1.1-0.4,1.5-0.7c0.4-0.3,0.5-0.8,0.5-1.4c0-0.7-0.1-1.3-0.4-1.7s-0.6-0.8-1-1
			c-0.4-0.2-0.9-0.4-1.4-0.5c-0.5-0.1-1-0.1-1.6-0.1c-1.4,0-2.5,0.3-3.5,0.8c-0.9,0.5-1.4,1.5-1.5,3h-3.3c0.1-1.2,0.3-2.3,0.8-3.1
			c0.5-0.8,1.1-1.5,1.8-2.1c0.8-0.5,1.7-0.9,2.6-1.1c1-0.2,2-0.3,3.2-0.3c0.9,0,1.8,0.1,2.7,0.2c0.9,0.1,1.7,0.4,2.4,0.8
			c0.7,0.4,1.3,1,1.7,1.7s0.6,1.7,0.6,2.8v10.2c0,0.8,0,1.3,0.1,1.7c0.1,0.4,0.4,0.5,0.9,0.5c0.3,0,0.6-0.1,1-0.2L359,158.1
			L359,158.1z M353.7,147.9c-0.4,0.3-1,0.5-1.6,0.7c-0.7,0.1-1.4,0.3-2.1,0.3c-0.7,0.1-1.5,0.2-2.2,0.3c-0.7,0.1-1.4,0.3-2,0.6
			c-0.6,0.3-1.1,0.6-1.4,1.1c-0.4,0.5-0.6,1.1-0.6,1.9c0,0.5,0.1,1,0.3,1.4c0.2,0.4,0.5,0.7,0.8,0.9c0.3,0.2,0.8,0.4,1.2,0.5
			c0.5,0.1,1,0.2,1.5,0.2c1.1,0,2-0.1,2.8-0.4c0.8-0.3,1.4-0.7,1.9-1.1c0.5-0.4,0.8-0.9,1.1-1.5c0.2-0.5,0.3-1,0.3-1.5
			C353.7,151.3,353.7,147.9,353.7,147.9z"/>
		<path d="M387.2,158.2v-2.7h-0.1c-0.5,1.1-1.4,1.9-2.5,2.4c-1.2,0.5-2.4,0.7-3.8,0.7c-1.5,0-2.9-0.3-4-0.8
			c-1.1-0.6-2.1-1.3-2.8-2.3c-0.8-1-1.3-2.1-1.7-3.3c-0.4-1.3-0.6-2.6-0.6-4c0-1.4,0.2-2.7,0.6-4s0.9-2.4,1.7-3.3
			c0.8-0.9,1.7-1.7,2.8-2.2c1.1-0.6,2.5-0.8,4-0.8c0.5,0,1.1,0.1,1.7,0.2s1.2,0.3,1.8,0.5c0.6,0.2,1.2,0.6,1.7,1
			c0.5,0.4,1,0.9,1.3,1.5h0.1v-10.2h3.3v27.5L387.2,158.2L387.2,158.2z M375.5,151.1c0.2,0.9,0.6,1.7,1.1,2.4
			c0.5,0.7,1.1,1.2,1.9,1.7c0.8,0.4,1.7,0.6,2.8,0.6c1.1,0,2-0.2,2.8-0.6c0.8-0.4,1.4-1,1.9-1.7c0.5-0.7,0.8-1.5,1.1-2.4
			c0.2-0.9,0.3-1.8,0.3-2.7c0-1-0.1-1.9-0.3-2.8c-0.2-0.9-0.6-1.7-1.1-2.4c-0.5-0.7-1.2-1.3-1.9-1.7c-0.8-0.4-1.8-0.6-2.9-0.6
			c-1.1,0-2,0.2-2.8,0.7s-1.4,1-1.9,1.7s-0.8,1.5-1,2.5c-0.2,0.9-0.3,1.9-0.3,2.8C375.1,149.3,375.2,150.2,375.5,151.1z"/>
		<path d="M409.6,156.9c-1.5,1.1-3.4,1.7-5.6,1.7c-1.6,0-3-0.3-4.1-0.8c-1.2-0.5-2.1-1.2-2.9-2.2c-0.8-0.9-1.4-2-1.8-3.3
			s-0.6-2.7-0.7-4.2c0-1.5,0.2-2.9,0.7-4.2s1.1-2.3,1.9-3.3c0.8-0.9,1.8-1.6,3-2.2s2.4-0.8,3.8-0.8c1.8,0,3.2,0.4,4.4,1.1
			s2.1,1.7,2.8,2.8c0.7,1.1,1.2,2.4,1.5,3.7c0.3,1.3,0.4,2.6,0.3,3.8h-14.9c0,0.9,0.1,1.7,0.3,2.5c0.2,0.8,0.6,1.5,1.1,2.1
			c0.5,0.6,1.2,1.1,2,1.4c0.8,0.4,1.7,0.5,2.8,0.5c1.4,0,2.5-0.3,3.4-1c0.9-0.6,1.5-1.6,1.7-2.9h3.2
			C412,154.1,411.1,155.8,409.6,156.9z M408.8,144.1c-0.3-0.7-0.7-1.3-1.2-1.8s-1.1-0.9-1.8-1.2c-0.7-0.3-1.4-0.4-2.2-0.4
			c-0.8,0-1.6,0.1-2.3,0.4c-0.7,0.3-1.3,0.7-1.7,1.2c-0.5,0.5-0.9,1.1-1.2,1.8c-0.3,0.7-0.4,1.4-0.5,2.2h11.4
			C409.3,145.6,409.1,144.8,408.8,144.1z"/>
		<path d="M424.5,133.8v-3.1h22v3.1h-9.2v24.4h-3.7v-24.4L424.5,133.8L424.5,133.8z"/>
		<path d="M448.4,138.3v4.2h0.1c0.8-1.6,1.8-2.8,2.9-3.6c1.2-0.8,2.6-1.1,4.4-1.1v3.5c-1.3,0-2.4,0.2-3.3,0.5
			c-0.9,0.4-1.7,0.9-2.2,1.6c-0.6,0.7-1,1.5-1.2,2.5c-0.3,1-0.4,2.1-0.4,3.4v8.9h-3.3v-19.9L448.4,138.3L448.4,138.3z"/>
		<path d="M475.8,158.1c-0.6,0.3-1.3,0.5-2.3,0.5c-0.8,0-1.5-0.2-2-0.7c-0.5-0.5-0.8-1.3-0.8-2.3c-0.9,1.1-1.9,1.9-3.1,2.3
			c-1.2,0.5-2.5,0.7-3.9,0.7c-0.9,0-1.7-0.1-2.6-0.3c-0.8-0.2-1.5-0.5-2.1-1c-0.6-0.4-1.1-1-1.4-1.7c-0.3-0.7-0.5-1.6-0.5-2.6
			c0-1.1,0.2-2.1,0.6-2.8c0.4-0.7,0.9-1.3,1.5-1.7c0.6-0.4,1.3-0.8,2.2-1c0.8-0.2,1.6-0.4,2.5-0.6c0.9-0.2,1.7-0.3,2.6-0.4
			c0.8-0.1,1.5-0.2,2.1-0.4c0.6-0.2,1.1-0.4,1.5-0.7c0.4-0.3,0.5-0.8,0.5-1.4c0-0.7-0.1-1.3-0.4-1.7s-0.6-0.8-1-1
			c-0.4-0.2-0.9-0.4-1.4-0.5c-0.5-0.1-1-0.1-1.6-0.1c-1.4,0-2.5,0.3-3.5,0.8c-0.9,0.5-1.4,1.5-1.5,3h-3.3c0.1-1.2,0.3-2.3,0.8-3.1
			c0.5-0.8,1.1-1.5,1.8-2.1c0.8-0.5,1.7-0.9,2.6-1.1c1-0.2,2-0.3,3.2-0.3c0.9,0,1.8,0.1,2.7,0.2c0.9,0.1,1.7,0.4,2.4,0.8
			c0.7,0.4,1.3,1,1.7,1.7c0.4,0.7,0.6,1.7,0.6,2.8v10.2c0,0.8,0,1.3,0.1,1.7c0.1,0.4,0.4,0.5,0.9,0.5c0.3,0,0.6-0.1,1-0.2
			L475.8,158.1L475.8,158.1z M470.5,147.9c-0.4,0.3-1,0.5-1.6,0.7c-0.7,0.1-1.4,0.3-2.1,0.3c-0.7,0.1-1.5,0.2-2.2,0.3
			c-0.7,0.1-1.4,0.3-2,0.6c-0.6,0.3-1.1,0.6-1.4,1.1c-0.4,0.5-0.6,1.1-0.6,1.9c0,0.5,0.1,1,0.3,1.4c0.2,0.4,0.5,0.7,0.8,0.9
			c0.3,0.2,0.8,0.4,1.2,0.5c0.5,0.1,1,0.2,1.5,0.2c1.1,0,2-0.1,2.8-0.4s1.4-0.7,1.9-1.1c0.5-0.4,0.8-0.9,1.1-1.5
			c0.2-0.5,0.3-1,0.3-1.5V147.9z"/>
		<path d="M481.9,138.3v3.1h0.1c1.4-2.4,3.5-3.6,6.5-3.6c1.3,0,2.4,0.2,3.3,0.5s1.6,0.9,2.1,1.5c0.5,0.6,0.9,1.4,1.1,2.3
			c0.2,0.9,0.3,1.9,0.3,2.9v13.1h-3.3v-13.5c0-1.2-0.4-2.2-1.1-2.9c-0.7-0.7-1.7-1.1-3-1.1c-1,0-1.9,0.2-2.6,0.5
			c-0.7,0.3-1.3,0.7-1.8,1.3c-0.5,0.6-0.8,1.2-1.1,2c-0.2,0.8-0.4,1.6-0.4,2.5v11.2h-3.3v-19.9L481.9,138.3L481.9,138.3z"/>
		<path d="M502.7,153.8c0.3,0.5,0.7,0.9,1.2,1.2s1.1,0.5,1.7,0.6c0.6,0.1,1.3,0.2,1.9,0.2c0.5,0,1,0,1.6-0.1
			c0.6-0.1,1.1-0.2,1.6-0.4c0.5-0.2,0.9-0.5,1.2-0.9c0.3-0.4,0.5-0.9,0.5-1.5c0-0.8-0.3-1.5-1-1.9c-0.6-0.4-1.4-0.8-2.4-1.1
			c-1-0.3-2-0.5-3.1-0.7c-1.1-0.2-2.2-0.5-3.1-0.9c-1-0.4-1.8-1-2.4-1.7c-0.6-0.7-1-1.7-1-3c0-1,0.2-1.9,0.7-2.6s1-1.3,1.7-1.7
			c0.7-0.4,1.5-0.8,2.4-1c0.9-0.2,1.8-0.3,2.6-0.3c1.1,0,2.2,0.1,3.1,0.3c1,0.2,1.8,0.5,2.5,1c0.7,0.5,1.3,1.1,1.7,1.9
			c0.4,0.8,0.7,1.8,0.8,3h-3.3c-0.1-0.6-0.2-1.2-0.5-1.6c-0.3-0.4-0.6-0.8-1.1-1c-0.4-0.3-0.9-0.4-1.4-0.6c-0.5-0.1-1.1-0.2-1.6-0.2
			c-0.5,0-1,0-1.5,0.1c-0.5,0.1-1,0.2-1.4,0.4c-0.4,0.2-0.7,0.4-1,0.8c-0.3,0.3-0.4,0.7-0.4,1.2c0,0.6,0.2,1,0.6,1.4
			c0.4,0.4,0.9,0.7,1.5,0.9c0.6,0.2,1.3,0.4,2.1,0.6c0.8,0.2,1.5,0.3,2.3,0.5c0.8,0.2,1.6,0.4,2.4,0.6c0.8,0.3,1.5,0.6,2.1,1
			c0.6,0.4,1.1,1,1.5,1.6c0.4,0.6,0.6,1.4,0.6,2.4c0,1.2-0.3,2.2-0.8,3c-0.5,0.8-1.2,1.4-2,1.9c-0.8,0.5-1.7,0.8-2.7,1
			c-1,0.2-2,0.3-3,0.3c-1.1,0-2.2-0.1-3.1-0.3c-1-0.2-1.9-0.6-2.7-1.1c-0.8-0.5-1.4-1.2-1.9-2.1c-0.5-0.9-0.7-1.9-0.8-3.1h3.3
			C502.3,152.6,502.4,153.2,502.7,153.8z"/>
		<path d="M522.9,138.3v2.7h0.1c0.5-1.1,1.4-1.9,2.5-2.4s2.4-0.8,3.8-0.8c1.5,0,2.9,0.3,4,0.8c1.1,0.6,2.1,1.3,2.8,2.3
			s1.3,2.1,1.7,3.3c0.4,1.3,0.6,2.6,0.6,4c0,1.4-0.2,2.7-0.6,4c-0.4,1.3-0.9,2.4-1.7,3.3s-1.7,1.7-2.8,2.2c-1.1,0.5-2.5,0.8-4,0.8
			c-0.5,0-1-0.1-1.6-0.2s-1.2-0.3-1.8-0.5c-0.6-0.2-1.2-0.5-1.7-0.9c-0.5-0.4-1-0.9-1.3-1.5h-0.1v10.2h-3.3v-27.5L522.9,138.3
			L522.9,138.3z M534.6,145.4c-0.2-0.9-0.6-1.7-1.1-2.4c-0.5-0.7-1.1-1.2-1.9-1.7c-0.8-0.4-1.7-0.6-2.8-0.6c-1.1,0-2,0.2-2.8,0.7
			c-0.8,0.4-1.4,1-1.9,1.7c-0.5,0.7-0.8,1.5-1.1,2.4c-0.2,0.9-0.3,1.8-0.3,2.7c0,1,0.1,1.9,0.3,2.8c0.2,0.9,0.6,1.7,1.1,2.4
			c0.5,0.7,1.2,1.3,1.9,1.7c0.8,0.4,1.8,0.6,2.9,0.6c1.1,0,2.1-0.2,2.8-0.6s1.4-1,1.8-1.7c0.5-0.7,0.8-1.5,1-2.5
			c0.2-0.9,0.3-1.9,0.3-2.8C535,147.2,534.9,146.3,534.6,145.4z"/>
		<path d="M541.8,144.2c0.4-1.3,1-2.4,1.9-3.3c0.8-0.9,1.8-1.7,3-2.2c1.2-0.5,2.6-0.8,4.2-0.8c1.6,0,3,0.3,4.2,0.8
			c1.2,0.5,2.2,1.3,3,2.2c0.8,0.9,1.4,2,1.9,3.3c0.4,1.3,0.6,2.6,0.6,4.1c0,1.5-0.2,2.8-0.6,4.1c-0.4,1.3-1,2.4-1.9,3.3
			s-1.8,1.7-3,2.2c-1.2,0.5-2.6,0.8-4.2,0.8c-1.6,0-3-0.3-4.2-0.8c-1.2-0.5-2.2-1.3-3-2.2c-0.8-0.9-1.4-2-1.9-3.3
			c-0.4-1.3-0.6-2.6-0.6-4.1C541.2,146.8,541.4,145.4,541.8,144.2z M545.1,151.5c0.3,0.9,0.8,1.7,1.3,2.3c0.6,0.6,1.2,1.1,2,1.4
			c0.8,0.3,1.6,0.5,2.4,0.5s1.7-0.2,2.4-0.5c0.8-0.3,1.4-0.8,2-1.4c0.6-0.6,1-1.4,1.3-2.3c0.3-0.9,0.5-2,0.5-3.2s-0.2-2.3-0.5-3.2
			c-0.3-0.9-0.8-1.7-1.3-2.4c-0.6-0.6-1.2-1.1-2-1.5c-0.8-0.3-1.6-0.5-2.4-0.5s-1.7,0.2-2.4,0.5c-0.8,0.3-1.4,0.8-2,1.5
			c-0.6,0.6-1,1.4-1.3,2.4s-0.5,2-0.5,3.2C544.7,149.5,544.8,150.6,545.1,151.5z"/>
		<path d="M567.3,138.3v4.2h0.1c0.8-1.6,1.8-2.8,2.9-3.6s2.6-1.1,4.4-1.1v3.5c-1.3,0-2.4,0.2-3.3,0.5c-0.9,0.4-1.7,0.9-2.2,1.6
			c-0.6,0.7-1,1.5-1.2,2.5c-0.3,1-0.4,2.1-0.4,3.4v8.9h-3.3v-19.9L567.3,138.3L567.3,138.3z"/>
		<path d="M585.7,138.3v2.9h-4v12.3c0,0.4,0,0.7,0.1,0.9c0.1,0.2,0.2,0.4,0.4,0.5c0.2,0.1,0.4,0.2,0.8,0.3c0.3,0,0.7,0.1,1.2,0.1
			h1.5v2.9h-2.5c-0.8,0-1.6-0.1-2.2-0.2c-0.6-0.1-1.1-0.3-1.5-0.6s-0.6-0.7-0.8-1.3c-0.2-0.6-0.3-1.3-0.3-2.2v-12.6H575v-2.9h3.4v-6
			h3.3v6H585.7z"/>
		<path d="M603.4,156.9c-1.5,1.1-3.4,1.7-5.6,1.7c-1.6,0-3-0.3-4.1-0.8c-1.2-0.5-2.1-1.2-2.9-2.2c-0.8-0.9-1.4-2-1.8-3.3
			c-0.4-1.3-0.6-2.7-0.7-4.2c0-1.5,0.2-2.9,0.7-4.2s1.1-2.3,1.9-3.3c0.8-0.9,1.8-1.6,3-2.2s2.4-0.8,3.7-0.8c1.8,0,3.2,0.4,4.4,1.1
			c1.2,0.7,2.1,1.7,2.8,2.8c0.7,1.1,1.2,2.4,1.5,3.7s0.4,2.6,0.3,3.8h-14.9c0,0.9,0.1,1.7,0.3,2.5c0.2,0.8,0.6,1.5,1.1,2.1
			c0.5,0.6,1.2,1.1,2,1.4c0.8,0.4,1.7,0.5,2.8,0.5c1.4,0,2.5-0.3,3.4-1c0.9-0.6,1.5-1.6,1.7-2.9h3.2
			C605.8,154.1,604.8,155.8,603.4,156.9z M602.6,144.1c-0.3-0.7-0.7-1.3-1.2-1.8c-0.5-0.5-1.1-0.9-1.8-1.2c-0.7-0.3-1.4-0.4-2.2-0.4
			c-0.8,0-1.6,0.1-2.3,0.4c-0.7,0.3-1.3,0.7-1.7,1.2c-0.5,0.5-0.9,1.1-1.2,1.8c-0.3,0.7-0.4,1.4-0.5,2.2h11.4
			C603,145.6,602.9,144.8,602.6,144.1z"/>
		<path d="M620.4,139.1c0.6-1.7,1.4-3.3,2.5-4.6c1.1-1.3,2.5-2.4,4.1-3.2c1.6-0.8,3.5-1.2,5.7-1.2c2.2,0,4.1,0.4,5.7,1.2
			c1.6,0.8,3,1.9,4.1,3.2c1.1,1.3,1.9,2.9,2.5,4.6c0.6,1.7,0.8,3.5,0.8,5.4c0,1.9-0.3,3.7-0.8,5.4c-0.6,1.7-1.4,3.3-2.5,4.6
			c-1.1,1.3-2.5,2.4-4.1,3.2c-1.6,0.8-3.5,1.2-5.7,1.2c-2.2,0-4.1-0.4-5.7-1.2c-1.6-0.8-3-1.8-4.1-3.2c-1.1-1.3-1.9-2.9-2.5-4.6
			c-0.6-1.7-0.8-3.5-0.8-5.4S619.9,140.8,620.4,139.1z M623.8,148.6c0.4,1.3,0.9,2.6,1.7,3.6c0.8,1.1,1.8,1.9,3,2.6s2.6,1,4.3,1
			c1.7,0,3.1-0.3,4.3-1c1.2-0.6,2.2-1.5,3-2.6c0.8-1.1,1.3-2.3,1.7-3.6c0.4-1.3,0.5-2.7,0.5-4.1s-0.2-2.8-0.5-4.1s-0.9-2.6-1.7-3.6
			c-0.8-1.1-1.8-1.9-3-2.6s-2.6-1-4.3-1c-1.7,0-3.1,0.3-4.3,1s-2.2,1.5-3,2.6c-0.8,1.1-1.3,2.3-1.7,3.6s-0.5,2.7-0.5,4.1
			C623.3,145.8,623.4,147.2,623.8,148.6z"/>
		<path d="M652.9,138.3v3.1h0.1c1.4-2.4,3.5-3.6,6.5-3.6c1.3,0,2.4,0.2,3.3,0.5c0.9,0.4,1.6,0.9,2.1,1.5c0.5,0.6,0.9,1.4,1.1,2.3
			c0.2,0.9,0.3,1.9,0.3,2.9v13.1H663v-13.5c0-1.2-0.4-2.2-1.1-2.9c-0.7-0.7-1.7-1.1-3-1.1c-1,0-1.9,0.2-2.6,0.5
			c-0.7,0.3-1.3,0.7-1.8,1.3c-0.5,0.6-0.8,1.2-1.1,2c-0.2,0.8-0.4,1.6-0.4,2.5v11.2h-3.3v-19.9L652.9,138.3L652.9,138.3z"/>
		<path d="M678.6,128.6l-5.4,6.2h-2.5l3.7-6.2H678.6z M671.4,158.2h3.3v-19.9h-3.3V158.2z"/>
		<path d="M682.7,138.3v4.2h0.1c0.8-1.6,1.8-2.8,2.9-3.6s2.6-1.1,4.4-1.1v3.5c-1.3,0-2.4,0.2-3.3,0.5c-0.9,0.4-1.7,0.9-2.2,1.6
			c-0.6,0.7-1,1.5-1.2,2.5c-0.3,1-0.4,2.1-0.4,3.4v8.9h-3.3v-19.9L682.7,138.3L682.7,138.3z"/>
		<path d="M692.8,134.7v-4h3.3v4H692.8z M696,138.3v19.9h-3.3v-19.9H696z"/>
		<path d="M713,141.8c-0.8-0.7-1.9-1-3.3-1c-1.2,0-2.2,0.2-3,0.7s-1.4,1-1.9,1.7c-0.5,0.7-0.8,1.5-1,2.5c-0.2,0.9-0.3,1.9-0.3,2.9
			c0,0.9,0.1,1.8,0.3,2.7c0.2,0.9,0.6,1.7,1,2.3c0.5,0.7,1.1,1.2,1.8,1.6c0.7,0.4,1.6,0.6,2.7,0.6c1.6,0,2.9-0.4,3.8-1.3
			c0.9-0.8,1.5-2,1.7-3.6h3.3c-0.4,2.5-1.3,4.4-2.8,5.7c-1.5,1.3-3.5,2-6,2c-1.5,0-2.9-0.2-4-0.7s-2.1-1.2-2.9-2.1
			c-0.8-0.9-1.4-2-1.8-3.2c-0.4-1.2-0.6-2.6-0.6-4.1c0-1.5,0.2-2.9,0.6-4.2c0.4-1.3,1-2.4,1.7-3.4s1.8-1.7,2.9-2.3
			c1.2-0.6,2.6-0.8,4.1-0.8c1.1,0,2.2,0.1,3.2,0.4c1,0.3,1.9,0.7,2.6,1.3c0.8,0.6,1.4,1.3,1.9,2.1c0.5,0.9,0.8,1.9,0.9,3.1h-3.4
			C714.4,143.4,713.8,142.5,713,141.8z"/>
		<path d="M721.3,144.2c0.4-1.3,1-2.4,1.9-3.3c0.8-0.9,1.8-1.7,3-2.2s2.6-0.8,4.2-0.8c1.6,0,3,0.3,4.2,0.8c1.2,0.5,2.2,1.3,3,2.2
			c0.8,0.9,1.4,2,1.9,3.3c0.4,1.3,0.6,2.6,0.6,4.1c0,1.5-0.2,2.8-0.6,4.1c-0.4,1.3-1,2.4-1.9,3.3c-0.8,0.9-1.8,1.7-3,2.2
			c-1.2,0.5-2.6,0.8-4.2,0.8c-1.6,0-3-0.3-4.2-0.8c-1.2-0.5-2.2-1.3-3-2.2c-0.8-0.9-1.4-2-1.9-3.3c-0.4-1.3-0.6-2.6-0.6-4.1
			C720.7,146.8,720.9,145.4,721.3,144.2z M724.6,151.5c0.3,0.9,0.8,1.7,1.3,2.3c0.6,0.6,1.2,1.1,2,1.4c0.8,0.3,1.6,0.5,2.4,0.5
			c0.8,0,1.7-0.2,2.4-0.5c0.8-0.3,1.4-0.8,2-1.4c0.6-0.6,1-1.4,1.3-2.3c0.3-0.9,0.5-2,0.5-3.2s-0.2-2.3-0.5-3.2
			c-0.3-0.9-0.8-1.7-1.3-2.4c-0.6-0.6-1.2-1.1-2-1.5c-0.8-0.3-1.6-0.5-2.4-0.5c-0.8,0-1.7,0.2-2.4,0.5s-1.4,0.8-2,1.5
			c-0.6,0.6-1,1.4-1.3,2.4s-0.5,2-0.5,3.2C724.2,149.5,724.3,150.6,724.6,151.5z"/>
	</g>
</g>
</svg>
